<svg id="Capa_1" enable-background="new 0 0 512 512" height="512" viewBox="0 0 512 512" width="512" xmlns="http://www.w3.org/2000/svg"><g><g><path clip-rule="evenodd" d="m145.449 502h156.009 64.964c3.235 0 5.875-2.639 5.875-5.846v-118.36-37.429c24.663-27.98 40.954-63.564 44.813-102.753.624-6.158.908-12.372.908-18.672.624-17.792-1.306-35.074-5.449-51.504-6.584-26.022-18.731-49.887-35.192-70.176-32.099-39.671-80.516-65.749-135.49-67.764-34.171-1.277-66.496 6.924-94.451 22.248-48.503 25.851-65.503 60.613-65.503 60.613-17.539 26.873-28.239 58.712-29.516 93.105l-38.229 86.834c-4.654 10.613-5.619 15.607 6.982 15.607h29.346l10.018 109.932c1.107 12.202 10.047 22.304 22.307 22.304h29.317c11.352 0 15.326 4.881 17.397 13.706l10.018 42.31c.739 3.121 2.641 5.845 5.876 5.845z" fill="#ffbecb" fill-rule="evenodd"/></g><g><path clip-rule="evenodd" d="m236.495 263.321h46.402 19.328v-19.353-46.396-46.397-19.324h-19.328-46.402-46.403-19.327v19.324 46.397 46.396 19.353h19.327z" fill="#7dd9c2" fill-rule="evenodd"/></g><g><path clip-rule="evenodd" d="m201.246 439.713c12.09 0 21.882-9.79 21.882-21.85 0-12.089-9.791-21.879-21.882-21.879-12.062 0-21.853 9.79-21.853 21.879-.001 12.059 9.791 21.85 21.853 21.85z" fill="#ffe6b4" fill-rule="evenodd"/></g><g><path clip-rule="evenodd" d="m301.458 399.644c12.062 0 21.853-9.79 21.853-21.85 0-12.089-9.791-21.879-21.853-21.879-12.09 0-21.882 9.79-21.882 21.879.001 12.06 9.792 21.85 21.882 21.85z" fill="#ffe6b4" fill-rule="evenodd"/></g><g><path clip-rule="evenodd" d="m479.122 53.729c12.09 0 21.882-9.79 21.882-21.879 0-12.06-9.791-21.85-21.882-21.85-12.062 0-21.853 9.79-21.853 21.85 0 12.089 9.791 21.879 21.853 21.879z" fill="#ffe6b4" fill-rule="evenodd"/></g><g><path clip-rule="evenodd" d="m479.122 189.286c12.09 0 21.882-9.79 21.882-21.85 0-12.089-9.791-21.879-21.882-21.879-12.062 0-21.853 9.79-21.853 21.879 0 12.06 9.791 21.85 21.853 21.85z" fill="#ffe6b4" fill-rule="evenodd"/></g><g><path clip-rule="evenodd" d="m479.122 324.871c12.09 0 21.882-9.79 21.882-21.879s-9.791-21.879-21.882-21.879c-12.062 0-21.853 9.79-21.853 21.879s9.791 21.879 21.853 21.879z" fill="#ffe6b4" fill-rule="evenodd"/></g><g><path d="m134.522 161.175h26.242v26.396h-44.122c-5.523 0-10 4.477-10 10s4.477 10 10 10h44.122v26.396h-26.242c-5.523 0-10 4.477-10 10s4.477 10 10 10h26.242v9.353c0 5.523 4.477 10 10 10h9.327v26.209c0 5.523 4.477 10 10 10s10-4.477 10-10v-26.209h26.403v44.115c0 5.523 4.477 10 10 10s10-4.477 10-10v-44.115h26.403v26.209c0 5.523 4.477 10 10 10s10-4.477 10-10v-26.209h9.327c5.523 0 10-4.477 10-10v-9.353h26.242c5.523 0 10-4.477 10-10s-4.477-10-10-10h-26.242v-26.396h44.122c5.523 0 10-4.477 10-10s-4.477-10-10-10h-44.122v-26.396h26.242c5.523 0 10-4.477 10-10s-4.477-10-10-10h-26.242v-9.325c0-5.523-4.477-10-10-10h-9.327v-26.237c0-5.523-4.477-10-10-10s-10 4.477-10 10v26.237h-26.403v-44.114c0-5.523-4.477-10-10-10s-10 4.477-10 10v44.115h-26.403v-26.238c0-5.523-4.477-10-10-10s-10 4.477-10 10v26.237h-9.327c-5.523 0-10 4.477-10 10v9.325h-26.242c-5.523 0-10 4.477-10 10s4.477 10 10 10zm46.243-19.324h111.46v111.471h-111.46z"/><path d="m479.122 199.286c17.58 0 31.882-14.288 31.882-31.85 0-17.578-14.302-31.879-31.882-31.879-14.074 0-26.037 9.186-30.239 21.879h-28.647c-5.239-17.703-13.02-34.581-23.191-50.176h82.077c5.341 0 9.691-4.19 9.973-9.461.017-.168.027-.346.027-.539v-35.146c12.695-4.205 21.882-16.178 21.882-30.264 0-17.562-14.302-31.85-31.882-31.85-17.564 0-31.853 14.288-31.853 31.85 0 14.082 9.175 26.053 21.853 30.261v25.149h-87.054c-1.817-2.13-3.676-4.234-5.594-6.297-35.08-37.737-82.746-59.564-134.214-61.46-34.793-1.297-69.247 6.816-99.632 23.472-4.843 2.655-6.617 8.733-3.962 13.576 2.655 4.844 8.735 6.617 13.576 3.962 27.217-14.919 58.085-22.188 89.277-21.023 95.213 3.507 169.908 83.849 166.506 179.094-.004.127-.007.254-.006.381.103 42.266-15.248 83.032-43.226 114.791-1.608 1.826-2.496 4.177-2.496 6.61v151.634h-50.838v-83.973c12.678-4.204 21.853-16.164 21.853-30.233 0-17.578-14.289-31.878-31.853-31.878-17.58 0-31.882 14.301-31.882 31.878 0 14.073 9.187 26.035 21.882 30.236v83.97h-80.213v-43.901c12.695-4.201 21.882-16.164 21.882-30.236 0-17.578-14.302-31.879-31.882-31.879-17.564 0-31.853 14.301-31.853 31.879 0 14.069 9.175 26.029 21.853 30.233v43.904h-42.378l-9.576-40.441c-3.384-14.414-12.259-21.42-27.133-21.42h-29.318c-7.32 0-11.752-6.645-12.348-13.212l-10.019-109.933c-.469-5.15-4.787-9.092-9.958-9.092h-27.855c.202-.479.427-1.004.679-1.578l38.229-86.833c.509-1.155.794-2.396.841-3.658 1.166-31.401 10.813-61.834 27.897-88.01 3.019-4.625 1.717-10.821-2.908-13.84s-10.821-1.716-13.84 2.908c-18.716 28.676-29.435 61.924-31.054 96.266l-37.476 85.121c-2.763 6.3-6.547 14.929-1.707 22.336 4.762 7.288 14.269 7.288 17.847 7.288h20.215l9.19 100.836c1.624 17.901 15.495 31.401 32.266 31.401h29.317c6.045 0 6.501 1.047 7.667 6.01l10.018 42.306c1.945 8.229 8.071 13.545 15.606 13.545h220.973c8.753 0 15.875-7.108 15.875-15.846v-152.07c23.387-27.625 38.404-61.049 43.639-96.473h43.186v25.12c-12.678 4.208-21.853 16.178-21.853 30.26 0 17.578 14.289 31.879 31.853 31.879 17.58 0 31.882-14.301 31.882-31.879 0-14.085-9.187-26.058-21.882-30.263v-35.117c0-.277-.014-.511-.036-.722-.371-5.185-4.684-9.278-9.964-9.278h-51.279c.12-2.828.18-5.664.175-8.506.491-14.131-.545-28.082-3.019-41.67h23.887c4.206 12.677 16.166 21.851 30.237 21.851zm0-43.729c6.552 0 11.882 5.329 11.882 11.879 0 6.534-5.33 11.85-11.882 11.85-6.536 0-11.853-5.316-11.853-11.85 0-6.551 5.317-11.879 11.853-11.879zm-11.853-123.707c0-6.534 5.317-11.85 11.853-11.85 6.552 0 11.882 5.316 11.882 11.85 0 6.55-5.33 11.879-11.882 11.879-6.536 0-11.853-5.329-11.853-11.879zm-266.023 397.862c-6.536 0-11.853-5.316-11.853-11.85 0-6.55 5.317-11.879 11.853-11.879 6.552 0 11.882 5.329 11.882 11.879-.001 6.534-5.331 11.85-11.882 11.85zm100.212-40.068c-6.552 0-11.882-5.316-11.882-11.85 0-6.55 5.33-11.878 11.882-11.878 6.536 0 11.853 5.329 11.853 11.878 0 6.534-5.317 11.85-11.853 11.85zm177.664-98.53c6.552 0 11.882 5.329 11.882 11.878 0 6.55-5.33 11.879-11.882 11.879-6.536 0-11.853-5.329-11.853-11.879s5.317-11.878 11.853-11.878z"/><path d="m110.711 88.218c2.559 0 5.119-.976 7.071-2.929l.028-.028c3.905-3.905 3.891-10.223-.014-14.128-3.905-3.904-10.25-3.891-14.157.014-3.905 3.905-3.905 10.237 0 14.143 1.953 1.952 4.513 2.928 7.072 2.928z"/></g></g></svg>